# xmcd
#
# Track frame offsets: 
#        150
#        19190
#        35984
#        53242
#        76021
#        96470
#        116362
#        137667
#        159452
#        183960
#        202708
#        221278
#        238782
#        255180
#        270742
#        285856
#        305022
#        324072
#
# Disc length: 4541 seconds
#
# Revision: 2
# Processed by: cddbd v1.4PL0 Copyright (c) Steve Scherf et al.
# Submitted via: ExactAudioCopy v0.90b4
#
DISCID=e811bb12
DTITLE=Joe Cocker - BESTSELLER 2000
DYEAR=2000
DGENRE=Ritm&blues
TTITLE0=You can leave your hat on
TTITLE1=First we take manhattan
TTITLE2=Summer in the city
TTITLE3=Unchain my heart
TTITLE4=Noubliez jamais
TTITLE5=My father'son
TTITLE6=Tonight
TTITLE7=Different roads
TTITLE8=Where would i be now
TTITLE9=Could you be loved
TTITLE10=Wath becomes of the broken
TTITLE11=Don't let me be misunderstood
TTITLE12=No ordinary world
TTITLE13=Night calls
TTITLE14=The last one to know
TTITLE15=Love to lean on
TTITLE16=Let the healing begin
TTITLE17=While you see a chance
EXTD=
EXTT0=
EXTT1=
EXTT2=
EXTT3=
EXTT4=
EXTT5=
EXTT6=
EXTT7=
EXTT8=
EXTT9=
EXTT10=
EXTT11=
EXTT12=
EXTT13=
EXTT14=
EXTT15=
EXTT16=
EXTT17=
PLAYORDER=
